<?xml version="1.0" encoding="UTF-8"?>
<svg version="1.1" xmlns="http://www.w3.org/2000/svg" width="1280" height="1452">
<path d="M0 0 C0.2142169 75.50929892 0.3937977 151.01867041 0.5528124 226.52810365 C0.55924813 229.58401647 0.56570422 232.63992924 0.57217997 235.69584197 C0.74967773 319.47295111 0.89124491 403.2501369 0.56734159 1027.89504258 C0.56086873 1032.79817487 0.55441672 1037.70130718 0.54796402 1042.60443949 C0.40434668 1151.70940806 0.25083576 1260.81436126 0 1423 C-2.24706828 1421.88345076 -4.49336957 1420.76540273 -6.73925781 1419.64648438 C-7.37203644 1419.33225525 -8.00481506 1419.01802612 -8.6567688 1418.6942749 C-13.13465656 1416.4613492 -17.4759801 1414.09665994 -21.75 1411.5 C-23.19330744 1410.63814459 -24.63737044 1409.77755369 -26.08203125 1408.91796875 C-26.8601416 1408.45438965 -27.63825195 1407.99081055 -28.43994141 1407.51318359 C-33.41549011 1404.57226705 -38.4286851 1401.69626189 -43.4375 1398.8125 C-44.54528809 1398.1743335 -45.65307617 1397.53616699 -46.79443359 1396.87866211 C-49.06744322 1395.569321 -51.34055597 1394.26015888 -53.61376953 1392.95117188 C-56.89880622 1391.05830863 -60.18216436 1389.16257293 -63.46484375 1387.265625 C-75.25930572 1380.45120675 -87.07191239 1373.67012849 -98.90472412 1366.92263794 C-107.94471708 1361.76583392 -116.94525321 1356.54456231 -125.92675781 1351.28662109 C-133.54905778 1346.83083656 -141.20531311 1342.43602854 -148.875 1338.0625 C-161.20025196 1331.03396493 -173.49722067 1323.95759566 -185.78222656 1316.85888672 C-191.18670641 1313.73675397 -196.59344718 1310.61854119 -202 1307.5 C-208.47766885 1303.76363085 -214.95489983 1300.02651653 -221.4296875 1296.28515625 C-233.23629484 1289.46497363 -245.06027 1282.6767674 -256.90472412 1275.92263794 C-265.94471708 1270.76583392 -274.94525321 1265.54456231 -283.92675781 1260.28662109 C-291.54905778 1255.83083656 -299.20531311 1251.43602854 -306.875 1247.0625 C-319.20025196 1240.03396493 -331.49722067 1232.95759566 -343.78222656 1225.85888672 C-349.18670641 1222.73675397 -354.59344718 1219.61854119 -360 1216.5 C-366.47766885 1212.76363085 -372.95489983 1209.02651653 -379.4296875 1205.28515625 C-391.23629484 1198.46497363 -403.06027 1191.6767674 -414.90472412 1184.92263794 C-423.94471708 1179.76583392 -432.94525321 1174.54456231 -441.92675781 1169.28662109 C-449.54905778 1164.83083656 -457.20531311 1160.43602854 -464.875 1156.0625 C-477.20025196 1149.03396493 -489.49722067 1141.95759566 -501.78222656 1134.85888672 C-507.18670645 1131.73675395 -512.59347412 1128.61858796 -518 1125.5 C-520.1666775 1124.25001878 -522.33334417 1123.00001879 -524.5 1121.75 C-525.5725 1121.13125 -526.645 1120.5125 -527.75 1119.875 C-532.625 1117.0625 -532.625 1117.0625 -537.5 1114.25 C-538.5732251 1113.63084717 -539.6464502 1113.01169434 -540.75219727 1112.3737793 C-542.91159395 1111.1279423 -545.07093669 1109.88201182 -547.23022461 1108.63598633 C-552.75767597 1105.44651047 -558.28615121 1102.25883115 -563.81640625 1099.07421875 C-573.58011894 1093.45024164 -583.34303524 1087.82522407 -593.0625 1082.125 C-594.11642944 1081.50854614 -594.11642944 1081.50854614 -595.19165039 1080.87963867 C-599.87952283 1078.12047717 -599.87952283 1078.12047717 -601 1077 C-601.09750191 1075.39649342 -601.12447287 1073.78866423 -601.1241985 1072.18219608 C-601.12644579 1071.1306874 -601.12869308 1070.07917871 -601.13100848 1068.99580613 C-601.12838146 1067.82405228 -601.12575445 1066.65229843 -601.12304783 1065.44503689 C-601.12420167 1064.20799351 -601.12535552 1062.97095012 -601.12654433 1061.69642058 C-601.12875053 1058.23167191 -601.12642174 1054.76697772 -601.12226619 1051.30223418 C-601.11884898 1047.54466992 -601.12119953 1043.78710877 -601.12284368 1040.02954394 C-601.12492341 1033.43369026 -601.12326348 1026.83784558 -601.11920547 1020.24199295 C-601.11318799 1010.43409222 -601.11286803 1000.6261972 -601.11374746 990.81829496 C-601.11506361 974.32247972 -601.11171146 957.82666849 -601.10573006 941.33085442 C-601.09981994 924.98986733 -601.09596551 908.6488819 -601.09487724 892.30789375 C-601.0948085 891.29315665 -601.09473976 890.27841955 -601.09466894 889.23293283 C-601.09433062 884.07992892 -601.09402923 878.926925 -601.09374207 873.77392108 C-601.09163974 837.24275289 -601.08489707 800.71158688 -601.07543945 764.18041992 C-601.06626014 728.68334973 -601.05917402 693.18628013 -601.05493164 657.68920898 C-601.05480011 656.59569158 -601.05466859 655.50217418 -601.05453308 654.37551989 C-601.0532146 643.39431077 -601.05193878 632.41310165 -601.05069422 621.43189252 C-601.04815777 599.06043503 -601.04533652 576.68897758 -601.04234314 554.31752014 C-601.04220585 553.28883954 -601.04206856 552.26015894 -601.04192711 551.2003062 C-601.03272114 482.46686989 -601.01687532 413.7334348 -601 345 C-600.21987549 344.55458862 -599.43975098 344.10917725 -598.63598633 343.65026855 C-595.67426643 341.95909213 -592.71269683 340.26765306 -589.7512207 338.5760498 C-588.48207284 337.85117635 -587.21286927 337.12640041 -585.94360352 336.4017334 C-577.28272883 331.45683051 -568.63448202 326.49089045 -560 321.5 C-550.97405843 316.2846707 -541.93072607 311.10085259 -532.875 305.9375 C-524.22304141 301.00403266 -515.59522495 296.03180587 -507 291 C-498.40477328 285.9681931 -489.7768787 280.99610928 -481.125 276.0625 C-468.79974804 269.03396493 -456.50277933 261.95759566 -444.21777344 254.85888672 C-437.72874904 251.11021966 -431.2366305 247.36691333 -424.74511719 243.62255859 C-419.35251686 240.51181661 -413.96062178 237.39986673 -408.5703125 234.28515625 C-396.76370516 227.46497363 -384.93973 220.6767674 -373.09527588 213.92263794 C-365.03736788 209.32605777 -357.00582214 204.6867584 -349 200 C-340.40477328 194.9681931 -331.7768787 189.99610928 -323.125 185.0625 C-310.79974804 178.03396493 -298.50277933 170.95759566 -286.21777344 163.85888672 C-280.81329355 160.73675395 -275.40652588 157.61858796 -270 154.5 C-267.8333225 153.25001878 -265.66665583 152.00001879 -263.5 150.75 C-259.16666667 148.25 -254.83333333 145.75 -250.5 143.25 C-249.42766113 142.63133057 -248.35532227 142.01266113 -247.25048828 141.37524414 C-245.08223736 140.1243552 -242.91394303 138.87354148 -240.74560547 137.62280273 C-235.35282085 134.51201665 -229.96077907 131.39995762 -224.5703125 128.28515625 C-212.76370516 121.46497363 -200.93973 114.6767674 -189.09527588 107.92263794 C-181.03736788 103.32605777 -173.00582214 98.6867584 -165 94 C-156.40477328 88.9681931 -147.7768787 83.99610928 -139.125 79.0625 C-126.79974804 72.03396493 -114.50277933 64.95759566 -102.21777344 57.85888672 C-95.72874904 54.11021966 -89.2366305 50.36691333 -82.74511719 46.62255859 C-77.35251686 43.51181661 -71.96062178 40.39986673 -66.5703125 37.28515625 C-57.63574271 32.12405897 -48.7003516 26.96479295 -39.73828125 21.8515625 C-39.13247223 21.50590744 -38.52666321 21.16025238 -37.90249634 20.80412292 C-35.48526322 19.42522648 -33.06789445 18.04657087 -30.64978027 16.66921997 C-22.64749343 12.11058556 -14.67404697 7.50964502 -6.79467773 2.7409668 C-2.21400712 0 -2.21400712 0 0 0 Z " fill="#BA478F" transform="translate(620,12)"/>
<path d="M0 0 C3.0864782 1.23459128 5.73925482 2.31214541 8.58203125 3.890625 C9.25347168 4.26268066 9.92491211 4.63473633 10.61669922 5.01806641 C11.34131348 5.42460449 12.06592773 5.83114258 12.8125 6.25 C13.59383301 6.68618652 14.37516602 7.12237305 15.18017578 7.57177734 C22.64377645 11.75995349 30.029818 16.0790522 37.41381836 20.40551758 C45.20555169 24.96681499 53.0314295 29.46614541 60.875 33.9375 C73.20049481 40.96560673 85.49722363 48.04240605 97.78222656 55.14111328 C103.18670645 58.26324605 108.59347412 61.38141204 114 64.5 C116.1666775 65.74998122 118.33334417 66.99998121 120.5 68.25 C121.5725 68.86875 122.645 69.4875 123.75 70.125 C133.5 75.75 133.5 75.75 136.74951172 77.62475586 C138.91776264 78.8756448 141.08605697 80.12645852 143.25439453 81.37719727 C148.64717915 84.48798335 154.03922093 87.60004238 159.4296875 90.71484375 C171.23629484 97.53502637 183.06027 104.3232326 194.90472412 111.07736206 C203.94471708 116.23416608 212.94525321 121.45543769 221.92675781 126.71337891 C229.54905778 131.16916344 237.20531311 135.56397146 244.875 139.9375 C257.20025196 146.96603507 269.49722067 154.04240434 281.78222656 161.14111328 C287.18670641 164.26324603 292.59344718 167.38145881 298 170.5 C304.47766885 174.23636915 310.95489983 177.97348347 317.4296875 181.71484375 C329.23629484 188.53502637 341.06027 195.3232326 352.90472412 202.07736206 C361.94471708 207.23416608 370.94525321 212.45543769 379.92675781 217.71337891 C387.54905778 222.16916344 395.20531311 226.56397146 402.875 230.9375 C415.20025196 237.96603507 427.49722067 245.04240434 439.78222656 252.14111328 C445.18670645 255.26324605 450.59347412 258.38141204 456 261.5 C458.1666775 262.74998122 460.33334417 263.99998121 462.5 265.25 C463.5725 265.86875 464.645 266.4875 465.75 267.125 C475.50000001 272.75 475.50000001 272.75 478.74951172 274.62475586 C480.91776264 275.8756448 483.08605697 277.12645852 485.25439453 278.37719727 C490.64717915 281.48798335 496.03922093 284.60004238 501.4296875 287.71484375 C513.23629484 294.53502637 525.06027 301.3232326 536.90472412 308.07736206 C545.86239781 313.1872076 554.78297317 318.35760173 563.68093872 323.57069397 C571.67421816 328.24562299 579.70679961 332.84928618 587.75 337.4375 C589.04430009 338.17638105 590.33857107 338.91531308 591.6328125 339.65429688 C594.75487456 341.43678314 597.8773245 343.21858858 601 345 C601.15420718 414.70188656 601.29730911 484.40379347 601.38108826 554.10580444 C601.38295203 555.65245375 601.38295203 555.65245375 601.38485345 557.2303485 C601.41178767 579.63724018 601.43671958 602.04413368 601.45958797 624.45102987 C601.4708143 635.43887058 601.48248324 646.42671079 601.49438477 657.41455078 C601.49615001 659.05471123 601.49615001 659.05471123 601.49795092 660.72800623 C601.5363244 696.18946102 601.60394199 731.650787 601.68667499 767.11216371 C601.77151773 803.54387905 601.82695721 839.97552308 601.84523491 876.40733555 C601.84782842 881.54939306 601.85075916 886.69145033 601.85389519 891.83350754 C601.85450199 892.84556915 601.8551088 893.85763077 601.855734 894.90036091 C601.86638238 911.21227172 601.90815946 927.52396244 601.96148831 943.83578338 C602.01440037 960.22232736 602.03473031 976.60865245 602.0215124 992.99527891 C602.01465087 1002.7390805 602.03305956 1012.48208292 602.08717789 1022.22574066 C602.12083693 1028.72829701 602.1220378 1035.2303279 602.09648632 1041.73292002 C602.08285005 1045.44242803 602.0836668 1049.15042127 602.12394864 1052.85976906 C602.16695795 1056.85046704 602.14077674 1060.83896672 602.10743046 1064.82979774 C602.14289514 1066.56772592 602.14289514 1066.56772592 602.17907628 1068.34076375 C602.03440939 1075.94220629 602.03440939 1075.94220629 599.02566665 1079.018966 C596.74143683 1080.56553077 594.48793664 1081.81584733 592 1083 C591.03118896 1083.57556641 590.06237793 1084.15113281 589.06420898 1084.74414062 C588.21673096 1085.21013672 587.36925293 1085.67613281 586.49609375 1086.15625 C585.52115967 1086.69620605 584.54622559 1087.23616211 583.54174805 1087.79248047 C582.51734619 1088.35596191 581.49294434 1088.91944336 580.4375 1089.5 C571.9658105 1094.20114706 563.54379521 1098.97160357 555.1875 1103.875 C546.53136148 1108.9515055 537.8427734 1113.96774474 529.125 1118.9375 C516.79951217 1125.96561901 504.50277644 1133.04240601 492.21777344 1140.14111328 C486.81329355 1143.26324605 481.40652588 1146.38141204 476 1149.5 C473.8333225 1150.74998122 471.66665583 1151.99998121 469.5 1153.25 C465.16666667 1155.75 460.83333333 1158.25 456.5 1160.75 C455.42766113 1161.36866943 454.35532227 1161.98733887 453.25048828 1162.62475586 C451.08223736 1163.8756448 448.91394303 1165.12645852 446.74560547 1166.37719727 C441.35282085 1169.48798335 435.96077907 1172.60004238 430.5703125 1175.71484375 C418.76370516 1182.53502637 406.93973 1189.3232326 395.09527588 1196.07736206 C387.03736788 1200.67394223 379.00582214 1205.3132416 371 1210 C362.40477328 1215.0318069 353.7768787 1220.00389072 345.125 1224.9375 C332.79974804 1231.96603507 320.50277933 1239.04240434 308.21777344 1246.14111328 C301.72874904 1249.88978034 295.2366305 1253.63308667 288.74511719 1257.37744141 C283.35251686 1260.48818339 277.96062178 1263.60013327 272.5703125 1266.71484375 C260.76370516 1273.53502637 248.93973 1280.3232326 237.09527588 1287.07736206 C229.03736788 1291.67394223 221.00582214 1296.3132416 213 1301 C204.40477328 1306.0318069 195.7768787 1311.00389072 187.125 1315.9375 C174.79974804 1322.96603507 162.50277933 1330.04240434 150.21777344 1337.14111328 C144.81329355 1340.26324605 139.40652588 1343.38141204 134 1346.5 C131.8333225 1347.74998122 129.66665583 1348.99998121 127.5 1350.25 C123.16666667 1352.75 118.83333333 1355.25 114.5 1357.75 C113.42766113 1358.36866943 112.35532227 1358.98733887 111.25048828 1359.62475586 C109.08223736 1360.8756448 106.91394303 1362.12645852 104.74560547 1363.37719727 C99.35282085 1366.48798335 93.96077907 1369.60004238 88.5703125 1372.71484375 C76.76774733 1379.53269138 64.94821908 1386.31929384 53.10736084 1393.0703125 C44.79361363 1397.81196492 36.51008008 1402.60292566 28.25 1407.4375 C21.3775149 1411.45847239 14.4963855 1415.46063316 7.5625 1419.375 C6.89959961 1419.75068115 6.23669922 1420.1263623 5.55371094 1420.51342773 C1.1227197 1423 1.1227197 1423 0 1423 C0 953.41 0 483.82 0 0 Z " fill="#EA743B" transform="translate(668,12)"/>
<path d="M0 0 C0.74596079 52.59496232 1.34896142 105.1899001 1.76094617 157.7885969 C1.80973404 164.00181393 1.85970233 170.21502094 1.91040039 176.42822266 C1.92047339 177.66513082 1.93054638 178.90203898 1.94092462 180.17642921 C2.10672674 200.19051907 2.36808455 220.20227342 2.6649309 240.21479958 C2.96751708 260.75812878 3.1670153 281.30060594 3.2713564 301.84590769 C3.33895368 314.51939176 3.48637063 327.18673373 3.73684005 339.85794449 C3.90101795 348.55387621 3.96480598 357.24698699 3.95070698 365.94444132 C3.9455087 370.96117306 3.9835113 375.96743602 4.14117241 380.98191643 C5.00086026 409.60540591 5.00086026 409.60540591 -0.21913406 416.64382982 C-6.38019732 423.10529525 -14.60896397 426.58320198 -22.808514 429.72334957 C-27.09746119 431.43900374 -30.87916804 433.71031131 -34.7578125 436.19140625 C-35.99633001 436.93182127 -37.23703028 437.66861152 -38.48095703 438.39990234 C-39.69566171 439.12072831 -40.91034219 439.84159506 -42.125 440.5625 C-42.7822406 440.95254211 -43.4394812 441.34258423 -44.11663818 441.7444458 C-54.164979 447.70897216 -64.19215694 453.70760626 -74.20727539 459.7277832 C-81.52180508 464.12147568 -88.85878625 468.47560318 -96.20825195 472.81054688 C-104.41714323 477.65279244 -112.61684927 482.51038682 -120.8125 487.375 C-121.49754608 487.78159851 -122.18259216 488.18819702 -122.88839722 488.6071167 C-133.01223304 494.61745934 -143.11525596 500.66137732 -153.20605469 506.72705078 C-160.5209921 511.12098615 -167.85837747 515.47536207 -175.20825195 519.81054688 C-183.41714323 524.65279244 -191.61684927 529.51038682 -199.8125 534.375 C-200.49754608 534.78159851 -201.18259216 535.18819702 -201.88839722 535.6071167 C-210.98181449 541.00571804 -220.06092163 546.42725282 -229.125 551.875 C-233.08262713 554.25117856 -237.0410919 556.62595634 -241 559 C-242.04623535 559.62793457 -243.0924707 560.25586914 -244.17041016 560.90283203 C-247.25662458 562.75248402 -250.34649528 564.59586713 -253.4375 566.4375 C-254.37416504 567.00001465 -255.31083008 567.5625293 -256.27587891 568.14208984 C-257.1322998 568.65078613 -257.9887207 569.15948242 -258.87109375 569.68359375 C-259.62318115 570.13275146 -260.37526855 570.58190918 -261.15014648 571.04467773 C-263 572 -263 572 -265 572 C-264.99308655 573.82963807 -264.99308655 573.82963807 -264.98603344 575.69623852 C-264.87760339 604.6900144 -264.79522713 633.68378246 -264.74467335 662.67771332 C-264.73842027 666.25104426 -264.73194861 669.82437477 -264.7253418 673.39770508 C-264.72337447 674.46472542 -264.72337447 674.46472542 -264.7213674 675.55330173 C-264.69964649 687.05176994 -264.66024341 698.5501124 -264.61423602 710.04850616 C-264.56737879 721.85832069 -264.53968509 733.66806962 -264.52955753 745.47797328 C-264.52332926 752.10665018 -264.50779834 758.73509377 -264.47134972 765.3636837 C-264.43728781 771.60911303 -264.42696784 777.85414175 -264.43446159 784.09965515 C-264.43309162 786.38566074 -264.42322059 788.6716804 -264.40397263 790.95760536 C-264.30808671 802.93782408 -264.23643111 813.18746363 -270 824 C-270.33271251 824.63849223 -270.66542501 825.27698446 -271.00821972 825.93482494 C-275.25310607 833.40633836 -281.07969371 839.83745531 -287 846 C-287.79792969 846.86109375 -288.59585938 847.7221875 -289.41796875 848.609375 C-301.22935265 860.97469673 -315.49318319 871.02407895 -330 880 C-330.56799316 880.35400879 -331.13598633 880.70801758 -331.72119141 881.07275391 C-355.2503952 895.43561077 -383.75458792 901.29610508 -411 897 C-422.71260068 894.03919388 -432.87803369 888.88031935 -442 881 C-442.67933594 880.42765625 -443.35867188 879.8553125 -444.05859375 879.265625 C-455.4674052 868.85758648 -462.25861883 852.83219016 -463.14086914 837.56176758 C-463.7908063 819.68768124 -461.85424474 804.25744206 -454 788 C-453.18789063 786.26363281 -453.18789063 786.26363281 -452.359375 784.4921875 C-439.22157793 757.52700119 -413.64847626 735.70377399 -385.5 725.6875 C-382.68039073 724.7432544 -379.84618015 723.86034325 -377 723 C-375.91847656 722.65839844 -374.83695312 722.31679688 -373.72265625 721.96484375 C-362.24876109 718.9155391 -345.32428281 717.22523906 -334 721 C-334.0018986 719.92638893 -334.0037972 718.85277785 -334.00575334 717.74663311 C-334.08909745 670.43164805 -334.16623643 623.11665825 -334.2117157 575.80162048 C-334.21240598 575.08530659 -334.21309627 574.36899269 -334.21380747 573.63097232 C-334.22877197 558.06358661 -334.24262288 542.4962001 -334.25532665 526.92881239 C-334.26156334 519.29458243 -334.2680461 511.66035269 -334.2746582 504.02612305 C-334.275312 503.26642495 -334.27596579 502.50672685 -334.2766394 501.72400759 C-334.2979466 477.09946391 -334.33550347 452.47497758 -334.3814861 427.85046865 C-334.42865295 402.54583619 -334.45942812 377.24123548 -334.46957495 351.93655981 C-334.47101573 348.36255202 -334.47264391 344.78854433 -334.47438622 341.21453667 C-334.47489189 340.15941149 -334.47489189 340.15941149 -334.47540778 339.08297064 C-334.48131665 327.75933449 -334.50450765 316.43579649 -334.53416017 305.11220036 C-334.5636014 293.72846994 -334.57443386 282.34486632 -334.56750689 270.96108866 C-334.5642988 264.79292406 -334.5692777 258.62504758 -334.59602737 252.45693398 C-334.62033544 246.81066935 -334.62160299 241.16488697 -334.60449447 235.51860028 C-334.60237958 233.47537533 -334.60874255 231.43212045 -334.62441591 229.38895453 C-334.76635657 209.74434118 -334.76635657 209.74434118 -329 203 C-328.2013799 202.03374627 -328.2013799 202.03374627 -327.38662606 201.04797226 C-323.70521516 196.8214068 -319.43832676 194.43758517 -314.5078125 191.8984375 C-309.97246548 189.44389557 -305.62258375 186.73150533 -301.25 184 C-293.79593463 179.35343956 -286.32175854 174.74437833 -278.8125 170.1875 C-270.52369899 165.15390646 -262.25539664 160.08818961 -254 155 C-244.91266935 149.39948892 -235.80661835 143.83120504 -226.68359375 138.2890625 C-218.33653242 133.21423291 -210.01838386 128.09306624 -201.70239258 122.9675293 C-194.54504793 118.55878418 -187.37240863 114.17616054 -180.1875 109.8125 C-172.93710588 105.40870385 -165.70732647 100.97393334 -158.5 96.5 C-150.33997654 91.43468192 -142.14643807 86.42699771 -133.9375 81.44140625 C-126.6087019 76.98722373 -119.30081571 72.49988064 -112 68 C-103.74462326 62.91177268 -95.47609076 57.84644168 -87.1875 52.8125 C-80.04078138 48.47187736 -72.91511509 44.09990655 -65.8125 39.6875 C-57.57449078 34.57041523 -49.29433814 29.52498594 -41 24.5 C-32.31567353 19.23693727 -23.64060576 13.959688 -15 8.625 C-13.71029297 7.83125977 -13.71029297 7.83125977 -12.39453125 7.02148438 C-11.60433594 6.53228516 -10.81414062 6.04308594 -10 5.5390625 C-9.319375 5.11834473 -8.63875 4.69762695 -7.9375 4.26416016 C-5.92766717 2.99173733 -5.92766717 2.99173733 -3.875 1.34130859 C-2 0 -2 0 0 0 Z " fill="#FEFDDA" transform="translate(620,190)"/>
<path d="M0 0 C2.52605806 2.2103008 4.93315685 4.49266553 7.3125 6.859375 C7.86550781 7.37757813 8.41851563 7.89578125 8.98828125 8.4296875 C17.33810744 17.02708266 22.58458527 30.0703212 23.3125 41.859375 C23.39242188 42.87128906 23.47234375 43.88320313 23.5546875 44.92578125 C24.33418092 63.61069697 16.94997302 79.16535838 4.58203125 92.76171875 C-5.95170881 103.01641934 -21.99169676 108.94513374 -36.5 109.046875 C-37.89645383 109.00025254 -39.29285603 108.94437587 -40.6875 108.859375 C-40.80996094 109.88675781 -40.93242188 110.91414062 -41.05859375 111.97265625 C-41.53301004 115.79225122 -42.09076892 119.59581407 -42.66015625 123.40234375 C-47.01066789 153.3374909 -47.73795443 184.0356494 -41.06787109 213.74926758 C-40.6875 215.859375 -40.6875 215.859375 -40.6875 219.859375 C-39.82769531 219.81296875 -38.96789063 219.7665625 -38.08203125 219.71875 C-21.72677366 219.21935282 -7.75657646 224.70710752 4.63671875 235.27734375 C16.05602613 246.29655861 23.36571776 260.25544925 23.74389648 276.21704102 C23.78545683 294.20934634 19.27600561 309.77333106 6.5625 323.171875 C-6.62756865 335.62250041 -22.37960985 341.56994502 -40.4921875 341.16796875 C-57.0268948 339.57109604 -71.54503332 332.09017564 -82.6875 319.859375 C-86.29702669 315.25633502 -89.82914214 310.43444859 -91.6875 304.859375 C-110.01414954 305.27078958 -126.10589884 314.61094521 -140.875 324.671875 C-147.70415653 329.32356554 -154.56859406 333.68007085 -161.875 337.546875 C-162.61580811 337.94430908 -163.35661621 338.34174316 -164.11987305 338.7512207 C-169.46271785 341.50457753 -174.88973007 343.30119135 -180.6875 344.859375 C-176.94564133 348.85069091 -172.84242002 352.17566229 -168.5546875 355.56640625 C-159.95938735 362.44030432 -151.69431986 369.66187635 -143.63671875 377.15625 C-142.14255796 378.54344853 -140.63847746 379.90090954 -139.08276367 381.21899414 C-132.24222328 387.02205411 -125.97941664 393.41711208 -119.65112305 399.76538086 C-117.62985732 401.7920048 -115.60330426 403.81323047 -113.57617188 405.83398438 C-107.3995681 412.00740267 -101.327559 418.18542532 -95.6875 424.859375 C-94.06782183 426.63507721 -92.44338282 428.40645807 -90.8125 430.171875 C-85.89530567 435.57635886 -81.23050218 441.1388637 -76.6875 446.859375 C-75.89786865 447.8481665 -75.89786865 447.8481665 -75.09228516 448.85693359 C-68.73176603 456.84126218 -62.49582298 464.87444324 -56.8125 473.359375 C-56.38976807 473.98811523 -55.96703613 474.61685547 -55.53149414 475.26464844 C-52.6875 479.59985056 -52.6875 479.59985056 -52.6875 481.859375 C-51.86894531 481.53453125 -51.05039063 481.2096875 -50.20703125 480.875 C-46.19938304 479.71851994 -42.5061043 479.55614149 -38.375 479.609375 C-37.61880371 479.61614258 -36.86260742 479.62291016 -36.08349609 479.62988281 C-30.72059816 479.72921713 -25.80975755 480.18699614 -20.6875 481.859375 C-19.40359375 482.24416016 -19.40359375 482.24416016 -18.09375 482.63671875 C-1.93322619 487.92520477 9.86288146 498.61854893 17.6875 513.52734375 C20.92246799 520.1605834 22.88977086 526.45557608 23.3125 533.859375 C23.38855469 534.92800781 23.46460938 535.99664063 23.54296875 537.09765625 C24.20011882 553.91714591 18.91368685 568.37926139 7.9375 581.109375 C-2.42722164 592.16623164 -16.64154629 600.12070803 -32 601.0625 C-49.84932534 601.2893982 -65.54541464 596.58195984 -78.62548828 584.11694336 C-86.35844489 576.38267296 -90.95996315 568.07868951 -94.6875 557.859375 C-95.05359375 556.97636719 -95.4196875 556.09335937 -95.796875 555.18359375 C-99.34712521 541.93244057 -97.67909626 526.11981362 -91.6875 513.859375 C-90.1081372 511.37498408 -88.51291591 509.0498741 -86.62890625 506.7890625 C-85.42762089 504.84950431 -85.42762089 504.84950431 -86.2578125 502.54296875 C-88.00719927 499.25928375 -89.92980622 496.13427009 -92 493.046875 C-92.65379639 492.07053101 -92.65379639 492.07053101 -93.32080078 491.07446289 C-98.63518373 483.28530862 -104.61906628 476.06621108 -110.6875 468.859375 C-111.19039551 468.25738281 -111.69329102 467.65539062 -112.21142578 467.03515625 C-122.76457392 454.41733743 -133.95186094 442.38503245 -145.6875 430.859375 C-148.89331998 427.66529795 -152.08188787 424.45440276 -155.26953125 421.2421875 C-157.01295173 419.4895146 -158.75644335 417.73691244 -160.5 415.984375 C-161.79647461 414.67533203 -161.79647461 414.67533203 -163.11914062 413.33984375 C-168.14390378 408.29611923 -173.26881938 403.47531502 -178.6875 398.859375 C-179.7707266 397.91021663 -180.85281091 396.95975259 -181.93359375 396.0078125 C-199.77302023 380.44511059 -217.44747658 365.67717661 -240.9375 360.296875 C-241.783125 360.08869141 -242.62875 359.88050781 -243.5 359.66601562 C-258.91333649 356.1133752 -274.76308589 355.55964484 -290.51679802 355.70904541 C-293.30701082 355.73524028 -296.09702746 355.74776594 -298.88734436 355.75732422 C-304.79998646 355.7798384 -310.71246107 355.81836763 -316.625 355.859375 C-323.51433268 355.90693974 -330.40357222 355.9475428 -337.29303169 355.97125244 C-340.01652623 355.984031 -342.73972058 356.00902139 -345.46311951 356.03466797 C-371.54422561 356.18943541 -389.98872842 348.96794145 -408.6875 330.859375 C-409.36941406 330.20582031 -410.05132813 329.55226563 -410.75390625 328.87890625 C-414.97787839 324.74943013 -418.82557984 320.32472019 -422.6875 315.859375 C-440.02996911 295.87090417 -456.7061832 287.42680003 -482.6875 281.859375 C-482.6875 268.989375 -482.6875 256.119375 -482.6875 242.859375 C-449.13901089 242.859375 -421.95406062 258.8729709 -398.5 281.921875 C-393.96932658 286.51597785 -389.78735548 291.39774666 -385.6015625 296.3046875 C-378.31145243 304.66912958 -370.13918478 313.69373151 -358.52039528 315.12663651 C-356.17646624 315.21841889 -353.85057805 315.21967389 -351.50512695 315.18408203 C-350.62441528 315.18291382 -349.74370361 315.18174561 -348.83630371 315.18054199 C-345.94921608 315.17340239 -343.06273467 315.14523321 -340.17578125 315.1171875 C-338.15895618 315.10904318 -336.14212461 315.10238289 -334.12528992 315.09713745 C-328.83189494 315.08006959 -323.53875878 315.04584401 -318.2454834 315.00708008 C-309.76339217 314.94774021 -301.28116903 314.91398265 -292.79894066 314.88131332 C-289.84028863 314.86737364 -286.88176784 314.84578147 -283.923172 314.82302856 C-282.1093454 314.8130043 -280.29551791 314.80313857 -278.48168945 314.79345703 C-277.66131699 314.78514862 -276.84094452 314.77684021 -275.99571228 314.76828003 C-272.07244861 314.75301583 -268.52531463 314.93521308 -264.6875 315.859375 C-238.00655802 317.51166065 -210.32912319 314.51984193 -185.6875 303.859375 C-184.59953125 303.39273437 -183.5115625 302.92609375 -182.390625 302.4453125 C-174.54168785 298.78372699 -167.46364753 294.18960602 -160.25 289.421875 C-141.13413372 276.79133683 -117.42108152 262.859375 -93.6875 262.859375 C-93.59082031 262.00472656 -93.49414062 261.15007812 -93.39453125 260.26953125 C-92.6050412 256.46165936 -91.24973741 253.69709467 -89.375 250.296875 C-88.78074219 249.20246094 -88.18648437 248.10804688 -87.57421875 246.98046875 C-84.79294449 242.37956164 -82.03045533 239.00497613 -77.6875 235.859375 C-78.31012277 232.54642371 -78.93604237 229.2341031 -79.5625 225.921875 C-79.82353516 224.53258789 -79.82353516 224.53258789 -80.08984375 223.11523438 C-80.90542539 218.81077574 -81.75051698 214.52748614 -82.75 210.26171875 C-90.11491348 177.43161921 -88.67104177 135.13914652 -79.51586914 102.83862305 C-77.50348941 96.37110838 -77.50348941 96.37110838 -79.1953125 90.05078125 C-81.47252382 87.56077365 -81.47252382 87.56077365 -84.08984375 85.34375 C-88.82909334 80.81117446 -91.13360565 74.79769846 -93.6875 68.859375 C-94.04972656 68.06273437 -94.41195313 67.26609375 -94.78515625 66.4453125 C-99.7208385 53.45184203 -97.54946995 36.37814067 -92.46875 23.85546875 C-84.68237674 6.9201069 -71.61184587 -3.57088665 -54.5625 -10.390625 C-35.88134489 -15.26396981 -15.23514629 -12.13497118 0 0 Z " fill="#FEFDD9" transform="translate(1150.6875,412.140625)"/>
<path d="M0 0 C4.88872979 3.17736767 9.02551978 6.8834601 13.11328125 11.0234375 C13.6753125 11.56355469 14.23734375 12.10367188 14.81640625 12.66015625 C25.26268249 23.5737659 29.66514857 39.31724206 29.60351562 54.04443359 C29.03617959 70.63901249 21.54795866 85.46767749 9.71948242 96.9309082 C0.37132859 105.59677835 -12.18800902 111.78588227 -25.12890625 112.16015625 C-28.78887466 112.60405502 -28.78887466 112.60405502 -30.13720703 114.51098633 C-31.22924615 116.64144955 -32.07219312 118.77222092 -32.88671875 121.0234375 C-33.55547079 122.68172507 -34.22608811 124.33926146 -34.8984375 125.99609375 C-35.2289209 126.83930176 -35.5594043 127.68250977 -35.89990234 128.55126953 C-46.75790958 155.75269983 -63.49865275 181.36208856 -81.88671875 204.0234375 C-82.61890625 204.94640625 -83.35109375 205.869375 -84.10546875 206.8203125 C-88.94018265 212.84668124 -94.05275662 218.55970182 -99.30078125 224.22265625 C-103.70966791 228.99784014 -108.02945734 233.78858273 -111.88671875 239.0234375 C-110.91734375 239.2915625 -109.94796875 239.5596875 -108.94921875 239.8359375 C-95.59117849 243.68087329 -83.48962368 249.07125214 -72.265625 257.3515625 C-60.59423626 265.55411485 -51.62407413 266.87211862 -37.78173828 264.69189453 C-24.82533632 262.3380932 -12.3531642 258.18711092 0.11328125 254.0234375 C0.1390625 253.04246094 0.16484375 252.06148437 0.19140625 251.05078125 C0.96094095 230.44835548 7.07073826 214.4074834 22.11328125 200.0234375 C35.99510446 188.21417265 52.34970568 184.73742637 70.11328125 186.0234375 C83.64301228 187.92903342 95.75071813 195.3751229 105.11328125 205.0234375 C105.75910156 205.66023438 106.40492188 206.29703125 107.0703125 206.953125 C112.13294623 212.2694419 115.21198798 218.32408759 118.11328125 225.0234375 C118.45617187 225.77882813 118.7990625 226.53421875 119.15234375 227.3125 C124.18642005 240.6269261 121.89228945 257.61359942 116.7421875 270.4375 C109.60293321 286.15413175 98.28843655 296.54339022 82.17578125 302.8984375 C68.28633429 307.99517259 50.91622518 308.53689023 37.17578125 302.66015625 C31.1206456 299.42405697 24.99498884 295.90514509 20.11328125 291.0234375 C15.72196807 291.32284522 11.87226724 292.76183122 7.79443359 294.29638672 C-1.1662445 297.66721421 -10.18341121 300.25010404 -19.51171875 302.3984375 C-20.58905273 302.64875732 -21.66638672 302.89907715 -22.77636719 303.15698242 C-44.75558353 308.05885881 -66.27351843 308.32234727 -86.18359375 296.7578125 C-89.8574927 294.40057098 -93.41053822 291.8804987 -96.97021484 289.35620117 C-115.5630482 276.35226854 -135.59582505 275.59927505 -157.57421875 279.12109375 C-168.80427722 281.19672636 -179.5600517 283.76790555 -189.95678711 288.54150391 C-199.1927565 292.71546289 -209.76028951 295.0234375 -219.88671875 295.0234375 C-219.88671875 281.8234375 -219.88671875 268.6234375 -219.88671875 255.0234375 C-212.46171875 253.0434375 -212.46171875 253.0434375 -204.88671875 251.0234375 C-202.05925864 250.0621989 -199.37098895 249.11558322 -196.63671875 247.9609375 C-195.94255859 247.66912598 -195.24839844 247.37731445 -194.53320312 247.07666016 C-173.90810301 238.09105888 -155.95669932 224.62649369 -139.88671875 209.0234375 C-139.26410156 208.42660156 -138.64148438 207.82976562 -138 207.21484375 C-129.34779441 198.89734631 -121.31114803 190.42605438 -114.17675781 180.76660156 C-112.86433922 178.99319718 -111.5297052 177.23830669 -110.19140625 175.484375 C-92.62489813 152.25894176 -78.93129571 126.47052447 -66.88671875 100.0234375 C-67.46679688 99.765625 -68.046875 99.5078125 -68.64453125 99.2421875 C-79.87068406 93.14016716 -86.40505368 79.18258092 -89.97265625 67.453125 C-92.94327679 55.06690388 -92.49498355 39.48609784 -86.88671875 28.0234375 C-86.48582031 27.12109375 -86.08492187 26.21875 -85.671875 25.2890625 C-77.67732462 8.88285476 -63.73277607 -0.91899063 -46.88671875 -6.9765625 C-31.44125675 -11.46752573 -13.59558216 -7.71773167 0 0 Z " fill="#FEFDD9" transform="translate(887.88671875,852.9765625)"/>
<path d="M0 0 C13.54521112 9.03713002 23.33257315 21.81194785 27.64453125 37.62890625 C30.49424971 54.86881796 28.65630613 71.25633121 18.9921875 86.09765625 C8.51161347 100.34170914 -5.07053703 109.65981068 -22.7265625 112.43359375 C-26.10826828 112.66879945 -29.46326069 112.67008746 -32.8515625 112.62109375 C-33.70621094 112.62044922 -34.56085938 112.61980469 -35.44140625 112.61914062 C-39.33969876 112.5921939 -42.6622668 112.44863173 -46.484375 111.5546875 C-49.94369738 111.06421841 -49.94369738 111.06421841 -52.6484375 113.86328125 C-53.61062229 114.9954509 -54.55244053 116.14514789 -55.4765625 117.30859375 C-56.52037289 118.5257179 -57.5699365 119.73793007 -58.625 120.9453125 C-59.14545898 121.5439209 -59.66591797 122.1425293 -60.20214844 122.75927734 C-63.92421007 126.84734568 -68.32751888 130.11638015 -72.7265625 133.43359375 C-73.7371875 134.22121094 -74.7478125 135.00882813 -75.7890625 135.8203125 C-88.37350544 145.39567867 -108.30499467 159.43359375 -124.7265625 159.43359375 C-120.99598364 163.21985289 -117.14927797 166.84763112 -113.2265625 170.43359375 C-109.30346772 174.01990313 -105.47139053 177.65923238 -101.7265625 181.43359375 C-100.7464296 182.38190416 -99.76456616 183.32842825 -98.78125 184.2734375 C-90.99863346 191.82080815 -84.25987826 199.79521965 -77.7265625 208.43359375 C-76.58380859 209.8103125 -76.58380859 209.8103125 -75.41796875 211.21484375 C-73.7265625 213.43359375 -73.7265625 213.43359375 -73.7265625 215.43359375 C-72.7365625 215.10359375 -71.7465625 214.77359375 -70.7265625 214.43359375 C-52.53306935 212.92733789 -35.92121874 215.09033507 -21.0703125 226.46875 C-9.75191222 236.13370927 -0.85586167 249.77795603 0.49438477 264.90966797 C1.34444157 284.31839596 -1.73272909 299.93023641 -14.5390625 315.24609375 C-24.63314253 325.98075963 -39.32302917 333.5908384 -54.109375 334.68359375 C-66.35891325 334.89897025 -76.89064845 333.27190951 -87.7265625 327.43359375 C-88.644375 326.93988281 -89.5621875 326.44617188 -90.5078125 325.9375 C-104.53564988 317.72175816 -113.113133 305.00386801 -117.88671875 289.71875 C-122.03443946 272.25973956 -119.31382284 256.33015079 -110.1171875 241.10546875 C-108.41877625 238.34424604 -108.41877625 238.34424604 -108.7265625 234.43359375 C-116.95946331 221.2875102 -128.92474831 208.92547836 -141.12109375 199.45703125 C-142.82336717 198.1350258 -144.49041019 196.76600837 -146.11328125 195.34765625 C-182.47709013 163.72198887 -230.33021762 151.97913618 -276.7265625 145.43359375 C-276.7265625 132.56359375 -276.7265625 119.69359375 -276.7265625 106.43359375 C-262.08558176 106.43359375 -262.08558176 106.43359375 -256.0546875 107.38671875 C-255.40915421 107.48653549 -254.76362091 107.58635223 -254.098526 107.68919373 C-252.05580805 108.00905413 -250.01618837 108.34461435 -247.9765625 108.68359375 C-246.9154274 108.85648422 -246.9154274 108.85648422 -245.83285522 109.03286743 C-241.12487205 109.80105573 -236.42435825 110.60539353 -231.7265625 111.43359375 C-230.84887207 111.58812012 -229.97118164 111.74264648 -229.06689453 111.90185547 C-214.42360298 114.60750284 -196.84085412 119.58497583 -183.60400391 126.55053711 C-170.50238443 132.71289831 -147.72001787 125.89353314 -134.91015625 121.45849609 C-118.60922399 115.32845142 -103.73060654 107.09381766 -90.7265625 95.43359375 C-89.90542969 94.7065625 -89.08429688 93.97953125 -88.23828125 93.23046875 C-85.2600455 90.52488533 -85.2600455 90.52488533 -82.7265625 87.43359375 C-82.99177277 84.06263169 -84.74089 81.00129174 -86.1015625 77.93359375 C-92.96139808 61.52963911 -94.01019671 44.96289953 -87.4375 28.1328125 C-80.33170578 13.18024552 -68.6220425 0.92253337 -52.9921875 -5.046875 C-35.27736004 -11.33077109 -16.39102102 -9.4166181 0 0 Z " fill="#FEFDDA" transform="translate(945.7265625,271.56640625)"/>
<path d="M0 0 C0.6807244 15.21835492 1.19034784 30.43601041 1.50255299 45.66621304 C1.65147214 52.74111841 1.85465179 59.80642672 2.18774414 66.87524414 C4.3677181 114.05044812 4.3677181 114.05044812 -2.78189087 123.1854248 C-9.0454222 129.55930238 -17.09295757 132.50495638 -25.51924133 134.90846252 C-30.48541873 136.46581517 -34.5104865 139.01228823 -38.8125 141.875 C-40.38785112 142.83355392 -41.96690362 143.7860703 -43.55078125 144.73046875 C-44.39592285 145.23884277 -45.24106445 145.7472168 -46.11181641 146.27099609 C-49.52055712 148.31163022 -52.93720533 150.33865181 -56.35546875 152.36328125 C-57.0115361 152.75191345 -57.66760345 153.14054565 -58.34355164 153.54095459 C-59.70388951 154.34671456 -61.06423612 155.15245976 -62.42459106 155.95819092 C-63.10947601 156.36386292 -63.79436096 156.76953491 -64.5 157.1875 C-65.18544891 157.59349426 -65.87089783 157.99948853 -66.57711792 158.41778564 C-76.21682043 164.13021242 -85.81216581 169.90995601 -95.375 175.75 C-105.23506588 181.77110864 -115.19054637 187.60489956 -125.21899414 193.34130859 C-133.74993759 198.23768714 -142.16349266 203.31110324 -150.55526733 208.44018555 C-160.89773682 214.75890477 -171.32174537 220.92814973 -181.79418945 227.02880859 C-188.31813768 230.83173676 -194.81501742 234.67469987 -201.28562927 238.56735229 C-205.71047072 241.22878974 -210.14440721 243.87432369 -214.5859375 246.5078125 C-215.21752274 246.88236069 -215.84910797 247.25690887 -216.49983215 247.64280701 C-219.14537914 249.21129024 -221.79128182 250.77917259 -224.43731689 252.34683228 C-231.82859553 256.72678947 -239.21289463 261.11679169 -246.5625 265.56640625 C-247.14754303 265.92003235 -247.73258606 266.27365845 -248.33535767 266.63800049 C-251.0801691 268.29720689 -253.82231471 269.96049707 -256.56005859 271.63134766 C-257.99599365 272.50025635 -257.99599365 272.50025635 -259.4609375 273.38671875 C-260.29415527 273.89420654 -261.12737305 274.40169434 -261.98583984 274.92456055 C-264 276 -264 276 -266 276 C-266.65729803 260.91180761 -267.14932821 245.82427332 -267.45074081 230.72493839 C-267.59451133 223.71087752 -267.79069071 216.70584538 -268.11230469 209.69750977 C-270.2110555 163.03969995 -270.2110555 163.03969995 -263.40307617 153.88339233 C-257.44674673 147.52488452 -249.52892884 144.57607761 -241.36877441 142.08206177 C-236.98144069 140.6728353 -233.4452119 138.56139663 -229.625 136.04296875 C-227.41787791 134.75573342 -225.20959291 133.47048943 -223 132.1875 C-220.5576723 130.76329449 -218.11660654 129.33693477 -215.67578125 127.91015625 C-215.09298904 127.56966248 -214.51019684 127.2291687 -213.90974426 126.87835693 C-208.20353388 123.54111516 -202.53528102 120.14278254 -196.8737793 116.73046875 C-189.04135353 112.01341946 -181.17703667 107.35072167 -173.3125 102.6875 C-163.48422222 96.85929148 -153.66771668 91.01283037 -143.875 85.125 C-135.53440137 80.11125451 -127.17384428 75.13347445 -118.79174805 70.18945312 C-110.58285677 65.34720756 -102.38315073 60.48961318 -94.1875 55.625 C-93.15993088 55.01510223 -93.15993088 55.01510223 -92.11160278 54.3928833 C-81.98917359 48.38337575 -71.8870954 42.34104879 -61.79833984 36.27514648 C-54.45526291 31.86346965 -47.08640674 27.49733617 -39.70385742 23.15209961 C-34.11667355 19.85787212 -28.54886896 16.53282052 -22.9921875 13.1875 C-22.3047496 12.77385696 -21.61731171 12.36021393 -20.90904236 11.93403625 C-17.4828793 9.87201111 -14.0583326 7.80736723 -10.63598633 5.73901367 C-9.38627661 4.98608878 -8.1365229 4.23323689 -6.88671875 3.48046875 C-5.21935669 2.47342896 -5.21935669 2.47342896 -3.51831055 1.44604492 C-1 0 -1 0 0 0 Z " fill="#BA478F" transform="translate(620,417)"/>
<path d="M0 0 C28.23035392 4.0329077 45.76749406 15.43875779 64.22265625 36.93359375 C67.7402484 41.02327781 71.35568032 45.02319319 75 49 C75.58652344 49.64195312 76.17304687 50.28390625 76.77734375 50.9453125 C89.3601247 64.14983086 106.81811221 72.33691473 125.05992889 73.08440971 C127.23310579 73.10790777 129.40393285 73.10122311 131.57714844 73.08178711 C132.39475143 73.07872055 133.21235443 73.07565399 134.05473328 73.07249451 C135.81869252 73.06538081 137.58264385 73.05601296 139.34658051 73.04459953 C142.15873239 73.02703548 144.970826 73.01685277 147.78302002 73.00868225 C155.77548741 72.98440123 163.76787716 72.94913752 171.76025391 72.90405273 C176.66487356 72.87690393 181.56944744 72.86009931 186.47412872 72.84918404 C188.32206146 72.84306935 190.16998649 72.83318917 192.01787567 72.81910515 C208.68979185 72.69330254 225.36181178 73.41570302 241.625 77.375 C242.50027344 77.5709375 243.37554688 77.766875 244.27734375 77.96875 C253.49012559 80.12522338 261.72134073 83.33687373 269.5 88.75 C270.14163086 89.18755615 270.78326172 89.6251123 271.44433594 90.07592773 C276.84233857 93.79805775 281.96216928 97.80456064 287 102 C288.30324219 103.04414062 288.30324219 103.04414062 289.6328125 104.109375 C295.72595239 109.00471816 301.51882911 114.14592639 307.2421875 119.4609375 C309.39704597 121.44487236 311.57543102 123.36156514 313.8125 125.25 C319.98153452 130.58608472 325.610296 136.53512782 331.34472656 142.32836914 C334.93560255 145.95473018 338.55575366 149.55127158 342.1796875 153.14453125 C343.74485315 154.70045899 345.3099557 156.2564502 346.875 157.8125 C347.65230469 158.58142578 348.42960937 159.35035156 349.23046875 160.14257812 C354.0370078 164.92892163 358.58982708 169.84841627 363 175 C364.05695204 176.20326698 365.11551819 177.40511827 366.17578125 178.60546875 C377.9558216 192.02260322 388.25084506 206.0480982 398 221 C395.33333333 226.33333333 392.66666667 231.66666667 390 237 C389.34 237 388.68 237 388 237 C386.15561366 234.68003635 384.41269654 232.34402815 382.6875 229.9375 C373.88786933 217.94104486 364.0125194 206.95790844 353.87109375 196.08984375 C352.05172388 194.1395229 350.25711525 192.17444493 348.47265625 190.19140625 C342.60149702 183.66890115 336.50746418 177.40214967 330.3125 171.1875 C329.51642334 170.38683105 328.72034668 169.58616211 327.90014648 168.76123047 C323.68087715 164.55292256 319.38237698 160.51033032 314.86499023 156.62426758 C312.5246059 154.58596715 310.27922509 152.45904196 308.03027344 150.32104492 C301.19194776 143.83068715 294.04799614 137.92990137 286.56054688 132.20947266 C284.33169195 130.48204035 282.17138347 128.67384219 280 126.875 C255.7498801 107.49085811 227.51408344 103.36311853 197.12495804 103.77450562 C194.18670465 103.81387136 191.24887123 103.83260344 188.31039429 103.84692383 C182.08173629 103.88066919 175.85343699 103.93843748 169.625 104 C162.3707344 104.0714361 155.11667091 104.1323284 147.86213303 104.16781616 C144.9995689 104.18692909 142.13765706 104.22441238 139.27529907 104.26293945 C112.43924699 104.49244194 92.44008643 97.02202006 73 78 C67.98411701 72.81170153 63.20029016 67.41182363 58.5 61.9375 C41.80559144 42.91455691 25.14709349 33.88451038 0 30 C0 20.1 0 10.2 0 0 Z " fill="#D3562C" transform="translate(668,694)"/>
<path d="M0 0 C0.66 0.33 1.32 0.66 2 1 C2.58668638 20.55621271 -0.3233589 36.12066345 -13.51953125 51.4609375 C-24.83652596 63.04526279 -40.12336372 69.84367601 -56.29174805 70.35375977 C-69.01467368 70.47613616 -80.05839238 67.71196209 -91 61 C-91.88933228 60.04323364 -91.88933228 60.04323364 -92.79663086 59.06713867 C-95.14396889 56.70139452 -96.90235401 55.26882427 -100 54 C-104.95789496 54.5607569 -109.32342783 56.14397895 -113.95617676 57.94586182 C-117.70772469 59.40294998 -121.5097076 60.71539252 -125.30859375 62.04296875 C-126.05577667 62.30815308 -126.80295959 62.5733374 -127.57278442 62.84655762 C-136.1983068 65.86202174 -144.98630267 67.47359049 -154.02099609 68.72119141 C-155.71570649 68.95994779 -157.40223369 69.25559703 -159.0859375 69.5625 C-178.12748704 72.42128492 -196.23179786 66.83176037 -211.96484375 55.94921875 C-213.7917373 54.58865707 -215.61480247 53.22293642 -217.43359375 51.8515625 C-233.72934051 40.0948137 -253.48770729 38.87897634 -272.78417969 41.87792969 C-276.21290714 42.48808623 -279.60548317 43.22403946 -283 44 C-283.66692871 44.14453613 -284.33385742 44.28907227 -285.02099609 44.43798828 C-293.40899062 46.26710179 -301.34031537 48.75568451 -309.34521484 51.84765625 C-319.52063512 55.77192217 -327.81051813 57.13927063 -339 58 C-339 48.43 -339 38.86 -339 29 C-335.390625 28.319375 -331.78125 27.63875 -328.0625 26.9375 C-320.61217658 25.45643571 -313.70094142 23.78041917 -306.8125 20.5625 C-285.87361832 11.10807313 -255.47247119 5.61006847 -233.23168945 13.12817383 C-229.90023959 14.42962963 -226.83953687 15.92100676 -223.6875 17.625 C-223.05142822 17.96837402 -222.41535645 18.31174805 -221.76000977 18.66552734 C-217.43064884 21.05714794 -213.44652895 23.73067666 -209.4375 26.625 C-198.01294712 34.77132526 -185.46031119 39.40941008 -171.375 39.25 C-170.49183105 39.24250732 -169.60866211 39.23501465 -168.69873047 39.22729492 C-161.32376009 39.10717484 -154.24541453 38.42667441 -147 37 C-146.21463867 36.84934082 -145.42927734 36.69868164 -144.62011719 36.54345703 C-132.69939569 34.20997244 -121.4271568 31.03422057 -110.14453125 26.50341797 C-108.84902344 25.99512451 -108.84902344 25.99512451 -107.52734375 25.4765625 C-106.77187256 25.16799316 -106.01640137 24.85942383 -105.23803711 24.54150391 C-102.48327191 23.87497514 -100.70534974 24.21663743 -98 25 C-95.60546875 26.48828125 -95.60546875 26.48828125 -93.1875 28.3125 C-82.623852 35.95395543 -72.46725909 39.58144809 -59.375 39.5 C-58.31974121 39.49500488 -57.26448242 39.49000977 -56.17724609 39.48486328 C-39.8298687 39.122366 -26.36180694 32.75095313 -14.3984375 21.63671875 C-9.53342591 16.28837539 -5.51576544 9.91933635 -2.90625 3.171875 C-2 1 -2 1 0 0 Z " fill="#D3572C" transform="translate(1007,1119)"/>
<path d="M0 0 C1.69640117 9.89809003 3.08771114 20.2720076 0 30 C-5.72849043 37.13177835 -14.88243641 40.51145012 -23.06445312 44.16064453 C-29.00145481 46.85893145 -34.52146131 50.27345623 -40.09527588 53.64212036 C-43.14305965 55.47500136 -46.21771885 57.26167944 -49.2890625 59.0546875 C-55.59609332 62.75167844 -61.8716614 66.49921716 -68.13256836 70.27368164 C-73.19517427 73.32351197 -78.2702701 76.35132997 -83.35546875 79.36328125 C-84.0115361 79.75191345 -84.66760345 80.14054565 -85.34355164 80.54095459 C-86.70388951 81.34671456 -88.06423612 82.15245976 -89.42459106 82.95819092 C-90.10947601 83.36386292 -90.79436096 83.76953491 -91.5 84.1875 C-92.18544891 84.59349426 -92.87089783 84.99948853 -93.57711792 85.41778564 C-103.21682043 91.13021242 -112.81216581 96.90995601 -122.375 102.75 C-132.23506588 108.77110864 -142.19054637 114.60489956 -152.21899414 120.34130859 C-160.15904112 124.89853909 -168.001715 129.60134225 -175.8125 134.375 C-185.38176923 140.22315517 -195.00123358 145.97263563 -204.6875 151.625 C-213.84396291 156.96943003 -222.97523582 162.3507137 -232.0625 167.8125 C-233.07473633 168.42053467 -234.08697266 169.02856934 -235.12988281 169.6550293 C-240.07004192 172.62595262 -245.00332787 175.60781392 -249.9296875 178.6015625 C-251.32562134 179.44690552 -251.32562134 179.44690552 -252.74975586 180.30932617 C-254.49767652 181.36817647 -256.24341026 182.43064823 -257.98657227 183.49731445 C-258.75283936 183.96097412 -259.51910645 184.42463379 -260.30859375 184.90234375 C-260.97689209 185.30960693 -261.64519043 185.71687012 -262.33374023 186.13647461 C-264 187 -264 187 -266 187 C-266 177.1 -266 167.2 -266 157 C-262.8134375 155.2365625 -262.8134375 155.2365625 -259.5625 153.4375 C-251.38457465 148.86279253 -243.35521768 144.05129426 -235.33032227 139.21459961 C-226.57556323 133.93893893 -217.79295304 128.71172326 -209 123.5 C-199.27564363 117.73468307 -189.56363877 111.95021127 -179.875 106.125 C-171.53439974 101.11125725 -163.17384429 96.13347446 -154.79174805 91.18945312 C-146.58285677 86.34720756 -138.38315073 81.48961318 -130.1875 76.625 C-129.50245392 76.21840149 -128.81740784 75.81180298 -128.11160278 75.3928833 C-117.98776696 69.38254066 -107.88474404 63.33862268 -97.79394531 57.27294922 C-90.4790079 52.87901385 -83.14162253 48.52463793 -75.79174805 44.18945312 C-57.4921783 33.39493684 -39.22236507 22.54937704 -21 11.625 C-19.99864014 11.02510254 -18.99728027 10.42520508 -17.96557617 9.80712891 C-13.11513684 6.89478089 -8.29814578 3.95115586 -3.55859375 0.86083984 C-2 0 -2 0 0 0 Z " fill="#9D356D" transform="translate(621,605)"/>
<path d="M0 0 C1.69796324 9.90720433 3.06406559 20.25834832 0 30 C-5.23733775 36.58890878 -13.42560461 39.80646764 -20.95147705 43.18528748 C-27.93762885 46.32865193 -34.39479712 50.22799535 -40.92547607 54.21463013 C-43.61792327 55.85104832 -46.32860118 57.45586308 -49.03967285 59.06117249 C-57.77647165 64.23646153 -66.4465468 69.51939896 -75.11300659 74.81124878 C-84.39594005 80.47432112 -93.78035116 85.94227595 -103.21899414 91.34130859 C-111.15904112 95.89853909 -119.001715 100.60134225 -126.8125 105.375 C-136.38176698 111.2231538 -146.00118138 116.97272811 -155.6875 122.625 C-164.69923763 127.88453281 -173.68495201 133.18145604 -182.625 138.5625 C-193.89022896 145.34307794 -205.1954521 152.05416002 -216.51109314 158.75019836 C-223.32723204 162.78427573 -230.1383637 166.82678668 -236.94894409 170.87023926 C-239.00432837 172.09046508 -241.05990029 173.31037436 -243.11547852 174.53027344 C-243.760327 174.91316528 -244.40517548 175.29605713 -245.06956482 175.69055176 C-246.32103095 176.43347839 -247.57278279 177.175924 -248.82484436 177.91784668 C-253.29137383 180.56761876 -257.7267238 183.26579679 -262.14233398 185.99951172 C-264 187 -264 187 -266 187 C-267.77816228 177.42625706 -269.15089335 167.40134167 -266 158 C-259.95928557 150.6686341 -250.48574609 146.9012339 -242.03369141 142.95361328 C-236.07286907 140.13178326 -230.47915069 136.69203683 -224.83734131 133.28948975 C-221.80014374 131.46785728 -218.73673814 129.69146282 -215.67578125 127.91015625 C-209.37848126 124.23284349 -203.11933993 120.49480792 -196.8737793 116.73046875 C-189.04135353 112.01341946 -181.17703667 107.35072167 -173.3125 102.6875 C-163.48422222 96.85929148 -153.66771668 91.01283037 -143.875 85.125 C-135.53440137 80.11125451 -127.17384428 75.13347445 -118.79174805 70.18945312 C-110.58285677 65.34720756 -102.38315073 60.48961318 -94.1875 55.625 C-93.15993088 55.01510223 -93.15993088 55.01510223 -92.11160278 54.3928833 C-81.98917359 48.38337575 -71.8870954 42.34104879 -61.79833984 36.27514648 C-54.45526291 31.86346965 -47.08640674 27.49733617 -39.70385742 23.15209961 C-34.11667355 19.85787212 -28.54886896 16.53282052 -22.9921875 13.1875 C-22.3047496 12.77385696 -21.61731171 12.36021393 -20.90904236 11.93403625 C-17.4828793 9.87201111 -14.0583326 7.80736723 -10.63598633 5.73901367 C-9.38627661 4.98608878 -8.1365229 4.23323689 -6.88671875 3.48046875 C-5.21935669 2.47342896 -5.21935669 2.47342896 -3.51831055 1.44604492 C-1 0 -1 0 0 0 Z " fill="#9D356D" transform="translate(620,417)"/>
<path d="M0 0 C0.99 0.495 0.99 0.495 2 1 C2.85467139 18.47328178 0.88596799 32.66071023 -10 47 C-10.57234375 47.77730469 -11.1446875 48.55460938 -11.734375 49.35546875 C-20.46407935 60.19298633 -34.26054799 67.9257614 -48 70 C-59.41510779 70.74275946 -70.48860163 71.02106975 -81 66 C-81.928125 65.57589844 -82.85625 65.15179687 -83.8125 64.71484375 C-96.3161891 58.48036543 -107.43997909 47.89924851 -113 35 C-113 34.34 -113 33.68 -113 33 C-134.63644189 37.82155872 -151.70519834 46.83010053 -169.80615234 59.51708984 C-176.44481134 64.00442734 -176.44481134 64.00442734 -179.44921875 63.98046875 C-182.85724283 62.67049318 -185.07038782 60.71678971 -187.8125 58.3125 C-191.96488917 54.71290567 -196.16597677 51.30671543 -200.671875 48.15625 C-201.32929687 47.58390625 -201.32929687 47.58390625 -202 47 C-202 46.34 -202 45.68 -202 45 C-200.88625 44.52691406 -199.7725 44.05382812 -198.625 43.56640625 C-184.52968904 37.49620829 -171.56569257 30.50349117 -158.875 21.875 C-144.83414106 12.34289333 -130.26793658 4.67984002 -113 4 C-112.5153125 4.83402344 -112.030625 5.66804687 -111.53125 6.52734375 C-101.43475077 23.47781265 -89.06094136 34.22806759 -69.5 39.3125 C-55.77593019 41.90894564 -42.22166678 39.47029418 -30 33 C-29.1440625 32.5565625 -28.288125 32.113125 -27.40625 31.65625 C-15.34143538 24.95357521 -6.38005049 14.14015147 -2 1 C-1.34 0.67 -0.68 0.34 0 0 Z " fill="#D3572D" transform="translate(1172,712)"/>
<path d="M0 0 C0.33 0 0.66 0 1 0 C1.11765973 4.27059561 1.18773631 8.54076597 1.25 12.8125 C1.28351563 14.00810547 1.31703125 15.20371094 1.3515625 16.43554688 C1.54589461 34.26551828 -7.05919216 47.37944978 -19 60 C-19.86537305 61.05339282 -20.72161812 62.11445545 -21.5625 63.1875 C-43.2052705 88.1599275 -80.47712328 110.7740081 -113.77148438 113.85424805 C-134.51171718 115.21072471 -155.16573024 113.38028835 -172 100 C-172.83144531 99.34257813 -173.66289062 98.68515625 -174.51953125 98.0078125 C-180.77679541 92.73557493 -185.01569188 87.11407295 -189 80 C-189.38800781 79.36835937 -189.77601563 78.73671875 -190.17578125 78.0859375 C-197.55936541 65.14328418 -197.53196113 50.42205722 -197 36 C-196.34 36 -195.68 36 -195 36 C-194.64808594 36.95519531 -194.29617187 37.91039062 -193.93359375 38.89453125 C-187.11924227 56.93651651 -177.27406993 70.86466806 -159.32421875 79.25 C-132.97259948 90.12654088 -104.72351599 85.13044578 -79 75 C-48.87400892 62.0692909 -14.86413471 35.8529001 -1.875 5.0625 C-1.23272093 3.38150064 -0.60023909 1.69646523 0 0 Z " fill="#9D366D" transform="translate(354,1002)"/>
<path d="M0 0 C8.84743554 0 16.63543864 0.01492491 25.1875 1.5 C26.7031958 1.76067261 26.7031958 1.76067261 28.24951172 2.02661133 C66.09399894 8.98242461 103.4755416 25.13494019 133 50 C134.07653153 50.87926313 135.15337498 51.75814445 136.23046875 52.63671875 C147.43376934 61.8846372 157.46461421 72.24511367 166.5 83.625 C167.2321875 84.54539062 167.964375 85.46578125 168.71875 86.4140625 C170 89 170 89 169.4453125 91.41015625 C168.96835937 92.26480469 168.49140625 93.11945313 168 94 C167.43023438 95.09957031 166.86046875 96.19914063 166.2734375 97.33203125 C165.64695312 98.48058594 165.02046875 99.62914062 164.375 100.8125 C164.05015625 101.40998047 163.7253125 102.00746094 163.390625 102.62304688 C162.59620849 104.08337135 161.79844624 105.54187491 161 107 C158.14122843 104.15768969 155.309829 101.29296834 152.50390625 98.3984375 C144.66976846 90.36909363 136.74266566 82.90064318 127.70019531 76.25146484 C126.00363496 75.00267559 124.32604025 73.73112897 122.6484375 72.45703125 C88.1266904 46.61811733 46.76914401 34.37431063 4.50830078 29.38549805 C2 29 2 29 0 28 C0 18.76 0 9.52 0 0 Z " fill="#D3562C" transform="translate(669,418)"/>
<path d="M0 0 C0.87135734 18.38161819 -0.74010203 32.81100415 -12 48 C-12.721875 49.03125 -13.44375 50.0625 -14.1875 51.125 C-23.13281352 61.20668885 -37.43654734 69.66768017 -51 71 C-63.01954225 71.54168461 -63.01954225 71.54168461 -68.15625 70.13671875 C-72.01267361 69.18722051 -74.12044175 68.9808666 -78 70 C-83.09197387 73.77652736 -87.23743307 78.62371319 -91.51953125 83.265625 C-97.33424439 89.55569249 -103.82206798 94.38078544 -111 99 C-111.73766602 99.47501953 -112.47533203 99.95003906 -113.23535156 100.43945312 C-115.53824168 101.90151385 -117.8566774 103.33294743 -120.1875 104.75 C-121.26656616 105.41515625 -121.26656616 105.41515625 -122.36743164 106.09375 C-127.45833531 109.08076908 -127.45833531 109.08076908 -130.11865234 108.68408203 C-132.39781494 107.85534941 -133.66260991 106.77734757 -135.4375 105.125 C-138.04908317 102.74137286 -140.6850884 100.41240869 -143.41015625 98.16015625 C-144.29779663 97.42418213 -144.29779663 97.42418213 -145.20336914 96.67333984 C-146.39330751 95.68924351 -147.58647447 94.70903705 -148.78295898 93.73291016 C-150.22571092 92.53178777 -151.61789628 91.27043986 -153 90 C-153 89.34 -153 88.68 -153 88 C-151.84886719 87.61070312 -150.69773437 87.22140625 -149.51171875 86.8203125 C-123.40391529 77.74668094 -97.11626412 63.12523687 -80.16015625 40.66796875 C-78 39 -78 39 -74.83984375 39.21875 C-73.57269531 39.4765625 -72.30554688 39.734375 -71 40 C-51.04816559 41.48457093 -34.33055807 37.91938172 -18.6875 24.75 C-12.7333225 19.14043727 -8.32268775 12.51679645 -5.25 4.9375 C-3.14893617 0 -3.14893617 0 0 0 Z " fill="#D3572D" transform="translate(974,343)"/>
<path d="M0 0 C0.66 0 1.32 0 2 0 C6.35421763 13.06265289 1.36500814 28.05133921 -4 40 C-5.76271318 43.21582801 -7.74859911 46.10839033 -10 49 C-10.58523438 49.76054688 -11.17046875 50.52109375 -11.7734375 51.3046875 C-21.09525363 62.60501155 -35.4518803 70.24813218 -50 72 C-53.625 72.125 -53.625 72.125 -56 72 C-56.08507812 72.639375 -56.17015625 73.27875 -56.2578125 73.9375 C-57.29113614 78.20131965 -59.05932351 82.0159422 -60.875 86 C-61.27428711 86.87793213 -61.67357422 87.75586426 -62.08496094 88.66040039 C-75.70651505 118.23240578 -92.86741271 145.51122721 -113.77001953 170.46044922 C-114.92920346 171.91138488 -115.96985114 173.45477671 -117 175 C-121.98844309 174.3900874 -126.60155346 173.36525565 -131.4375 171.9375 C-132.67371094 171.57527344 -133.90992188 171.21304687 -135.18359375 170.83984375 C-136.11300781 170.56269531 -137.04242187 170.28554687 -138 170 C-138 167 -138 167 -136.49609375 165.23828125 C-135.81675781 164.60277344 -135.13742187 163.96726562 -134.4375 163.3125 C-131.12129826 160.11204701 -128.01387208 156.84951743 -125.015625 153.3515625 C-123.4997584 151.58305146 -121.96528712 149.8304609 -120.421875 148.0859375 C-102.82748467 128.08943879 -88.08954803 106.15180141 -75 83 C-74.62133789 82.3306543 -74.24267578 81.66130859 -73.85253906 80.97167969 C-67.33765991 69.33756331 -62.04113472 57.24458716 -56.88867188 44.95507812 C-56 43 -56 43 -55 42 C-53.24634507 41.66868372 -51.49138716 41.34299725 -49.73095703 41.04980469 C-33.50517161 38.33880879 -20.72413203 31.87293771 -10 19 C-5.97487834 13.00530424 -2.60205604 6.73473329 0 0 Z " fill="#D3572D" transform="translate(914,923)"/>
<path d="M0 0 C2.92173298 1.46086649 3.05834898 3.41230017 4.1875 6.4375 C10.12724701 21.10397208 20.03028068 30.81200124 34 38 C50.4705918 44.2986439 66.18709276 45.01773094 82.5625 38.1875 C96.74674417 31.47531303 105.66301362 22.88171602 113 9 C113.34289063 7.89914062 113.68578125 6.79828125 114.0390625 5.6640625 C114.51472656 4.34535156 114.51472656 4.34535156 115 3 C115.99 2.67 116.98 2.34 118 2 C120.4590323 4.4590323 119.37184207 11.41617195 119.38720703 14.86499023 C119.149004 30.01497059 112.77301437 44.7475975 102.39453125 55.80078125 C87.93827305 69.0778993 71.97530043 73.84679894 52.64453125 73.4453125 C41.31705607 72.8379719 30.80462024 68.07788889 22 61 C21.24332031 60.40445312 20.48664063 59.80890625 19.70703125 59.1953125 C10.4369056 51.46244387 4.99150491 42.31673864 1 31 C0.443125 29.45505859 0.443125 29.45505859 -0.125 27.87890625 C-1.31770676 22.59159457 -1.25147228 17.52560722 -1.1875 12.125 C-1.18685547 11.06796875 -1.18621094 10.0109375 -1.18554688 8.921875 C-1.14053915 1.14053915 -1.14053915 1.14053915 0 0 Z " fill="#D3572C" transform="translate(1055,969)"/>
<path d="M0 0 C2.71102279 3.29543489 4.34966851 6.75700723 6.125 10.625 C12.87453289 24.52907391 23.80328776 33.5296398 38.25 38.9375 C43.22400289 40.55567998 47.7779266 41.83917528 53 42 C54.0003125 42.07347656 55.000625 42.14695312 56.03125 42.22265625 C71.57490972 42.90531698 86.55021875 37.24711257 98.625 27.5 C106.55459833 20.08290713 112.03615864 9.99577387 116 0 C116.66 0 117.32 0 118 0 C118.81892851 20.28170939 117.63091191 36.72957314 103.64453125 52.6875 C92.76560894 64.02181905 79.87581541 71.71533497 63.9140625 72.30078125 C62.15114444 72.3202137 60.3879892 72.32376099 58.625 72.3125 C57.69888916 72.30686035 56.77277832 72.3012207 55.81860352 72.29541016 C49.14154254 72.17677472 43.21806384 71.58592496 37 69 C35.56527344 68.43152344 35.56527344 68.43152344 34.1015625 67.8515625 C19.758879 61.47293976 8.42621285 49.22024912 2.125 34.9375 C-1.52502418 25.35157791 -5.10099026 11.46623039 -0.984375 1.5546875 C-0.65953125 1.04164063 -0.3346875 0.52859375 0 0 Z " fill="#D3572C" transform="translate(828,563)"/>
<path d="M0 0 C3.92868228 6.10602427 2.95080969 16.20051661 1.58105469 23.11474609 C-2.82618174 40.04458472 -12.14135626 53.68996868 -27 63 C-38.59713428 69.75766246 -48.70975938 71.47844866 -62 71 C-62.04898437 71.65484375 -62.09796875 72.3096875 -62.1484375 72.984375 C-62.64592103 79.05710503 -63.47117631 84.9849157 -64.5234375 90.984375 C-65.25844679 95.63541742 -65.64890313 100.30638916 -66 105 C-66.33 105 -66.66 105 -67 105 C-67.36609668 83.56175407 -67.45040349 62.90111251 -62 42 C-61.06800781 41.90203125 -60.13601563 41.8040625 -59.17578125 41.703125 C-41.32041052 39.60886514 -25.51974363 34.57687431 -13 21 C-8.1183179 14.69864505 -4.55519079 8.52361733 -2 1 C-1.34 0.67 -0.68 0.34 0 0 Z " fill="#D3572D" transform="translate(1172,479)"/>
<path d="M0 0 C4.37647994 3.20468409 8.20106968 7.23602155 9.92578125 12.41015625 C10.60847678 20.65501766 10.11386741 26.60216445 4.67578125 33.09765625 C-1.0597158 37.92068786 -5.05511581 40.14331967 -12.5859375 39.7890625 C-19.34810386 38.75934486 -23.6127721 35.39629179 -27.84765625 30.19140625 C-31.81003355 24.43712584 -31.90691587 19.01884627 -30.6796875 12.2265625 C-28.64176184 5.48168595 -23.54490108 1.45696891 -17.63671875 -2.02734375 C-11.26688706 -3.42559949 -5.76139238 -3.22129954 0 0 Z " fill="#D3572D" transform="translate(867.07421875,886.58984375)"/>
<path d="M0 0 C4.97728345 2.84128326 8.2832433 6.90401115 11.125 11.8125 C12.73183122 18.56119112 12.09469549 24.19938863 9.01953125 30.42578125 C6.05842359 35.11799801 1.97974129 37.69929119 -3.25 39.4375 C-10.40264633 40.30754021 -16.73150804 40.34311006 -22.6640625 35.9375 C-27.83684152 31.04501935 -29.41424021 26.16454244 -29.625 19.25 C-29.56242805 12.99975704 -28.57814283 9.00309706 -24.25 4.4375 C-17.23965779 -1.683127 -8.75755009 -3.94849079 0 0 Z " fill="#D3582E" transform="translate(1123.25,932.5625)"/>
<path d="M0 0 C6.40042673 2.73416287 9.56412861 8.40169471 12.57421875 14.421875 C13.34758634 21.24272358 12.68698413 26.81793153 8.57421875 32.421875 C4.3816913 36.89257962 0.15053257 39.91402775 -6.0390625 40.79296875 C-12.85558233 40.96066895 -17.22192988 39.92449817 -22.42578125 35.421875 C-28.27297172 29.11306423 -28.8835835 24.25199102 -28.734375 15.7734375 C-28.11035786 8.99613742 -23.94970266 5.72889259 -19.01171875 1.62109375 C-13.90396881 -2.24117037 -5.96892654 -1.4225461 0 0 Z " fill="#D3572D" transform="translate(957.42578125,1079.578125)"/>
<path d="M0 0 C5.36364789 2.36417101 8.623113 6.41374815 11.57421875 11.38671875 C13.4676237 17.06693359 13.49553782 23.12773544 11.01171875 28.63671875 C8.17687372 33.60272387 4.12204048 36.87179772 -0.73828125 39.76171875 C-7.4798672 41.32952944 -13.59633483 41.12974064 -19.671875 37.65625 C-24.05726848 34.48196742 -26.73707366 30.52690763 -28.42578125 25.38671875 C-29.04468108 19.63670754 -29.27956395 14.26504069 -26.86328125 8.94921875 C-18.79885943 0.47123683 -12.0939186 -3.05756074 0 0 Z " fill="#D3572D" transform="translate(1122.42578125,672.61328125)"/>
<path d="M0 0 C5.50023474 3.19013615 10.0933931 7.71767929 12.125 13.8125 C12.81880261 20.85289039 12.64019584 27.09990415 8.125 32.8125 C1.71384304 38.61548397 -2.81844918 40.28963867 -11.46875 40.22265625 C-17.38437483 39.51033904 -21.39561414 36.63029786 -25.27734375 32.21875 C-29.125556 26.85042544 -29.43290345 21.20207348 -28.875 14.8125 C-27.58199676 8.27630932 -24.33053967 4.49645582 -18.875 0.8125 C-13.38091423 -2.51346514 -5.91763012 -2.28901736 0 0 Z " fill="#D3582E" transform="translate(894.875,526.1875)"/>
<path d="M0 0 C4.97728345 2.84128326 8.2832433 6.90401115 11.125 11.8125 C12.70519214 18.44930698 12.16446145 24.20687281 9.16015625 30.35546875 C6.1370956 34.81887962 1.81612435 37.74879188 -3.25 39.4375 C-10.45084218 40.12704713 -16.68411045 40.37830827 -22.6640625 35.9375 C-27.83684152 31.04501935 -29.41424021 26.16454244 -29.625 19.25 C-29.56242805 12.99975704 -28.57814283 9.00309706 -24.25 4.4375 C-17.23965779 -1.683127 -8.75755009 -3.94849079 0 0 Z " fill="#D3582E" transform="translate(923.25,304.5625)"/>
<path d="M0 0 C5.639114 3.34050372 10.03246757 8.01535216 12.61328125 14.08984375 C13.87028066 21.63184024 11.99825997 27.90702376 7.61328125 34.08984375 C1.91092472 39.63945858 -3.900197 40.50911031 -11.5625 40.4375 C-17.27756954 39.73398522 -20.94756328 36.64261675 -24.76171875 32.52734375 C-28.9871118 26.18925417 -29.27200853 20.65094112 -28.38671875 13.08984375 C-26.12021097 7.12387079 -22.01311656 3.26252218 -16.59375 0.015625 C-11.53243701 -2.10743903 -5.09501345 -1.94294294 0 0 Z " fill="#D3572D" transform="translate(1122.38671875,440.91015625)"/>
<path d="M0 0 C0.66 0 1.32 0 2 0 C2.44988281 1.08796875 2.89976562 2.1759375 3.36328125 3.296875 C8.14680589 14.38842763 13.68228307 24.12152204 24 31 C22.55676531 35.73789165 20.62773267 39.98858151 18.375 44.375 C18.05015625 45.01566406 17.7253125 45.65632812 17.390625 46.31640625 C16.59742593 47.87947501 15.79922969 49.44000622 15 51 C8.83567002 48.55552432 6.50410791 42.16448678 3.796875 36.46875 C-1.06584099 25.0014496 -2.87504144 12.25917669 0 0 Z " fill="#D4592E" transform="translate(797,922)"/>
<path d="M0 0 C3 1 3 1 4.5078125 3.80859375 C5.04148437 5.00613281 5.57515625 6.20367187 6.125 7.4375 C8.4852435 12.66436412 10.76961148 15.94515182 15.1875 19.75 C17.53946363 22.1257609 18.98794166 23.67141868 19.01904297 27.09814453 C18.39640348 31.89436749 17.07998509 36.46582075 15.60253906 41.06103516 C14.89212329 43.34714621 14.4048288 45.64163686 14 48 C8.49929726 45.80683188 6.57377432 41.06474625 4 36 C0.38278493 27.44192017 -1.16923979 20.05124184 -1.125 10.8125 C-1.12886719 9.99330078 -1.13273437 9.17410156 -1.13671875 8.33007812 C-1.12671604 2.25343208 -1.12671604 2.25343208 0 0 Z " fill="#D3582E" transform="translate(1055,480)"/>
<path d="M0 0 C-3.54099266 3.94956874 -6.95272794 6.57563158 -12.328125 7.32421875 C-18.29645679 7.58968136 -23.12363952 6.57360731 -28 3 C-28.66 2.01 -29.32 1.02 -30 0 C-19.02129707 -6.54499598 -11.19312431 -6.54295367 0 0 Z " fill="#DB6F3A" transform="translate(872,919)"/>
<path d="M0 0 C1.734375 1.60546875 1.734375 1.60546875 3 3 C-2.70058451 7.88621529 -6.96760061 9.46914603 -14.42578125 9.32421875 C-18.4138899 8.82192282 -21.76164759 7.37320434 -25 5 C-25.66 4.01 -26.32 3.02 -27 2 C-18.15488755 -3.3764409 -9.57480348 -5.05799401 0 0 Z " fill="#DB6E3A" transform="translate(1126,704)"/>
<path d="M0 0 C0.763125 0.639375 1.52625 1.27875 2.3125 1.9375 C1.32111634 5.13195845 0.29279281 5.94924045 -2.625 7.6875 C-8.23546085 9.79142282 -14.5732051 10.27858393 -20.13671875 7.8828125 C-25.27335696 4.76578608 -25.27335696 4.76578608 -26.6875 1.9375 C-25.44014433 1.2865741 -24.18948168 0.64198331 -22.9375 0 C-22.24140625 -0.35964844 -21.5453125 -0.71929688 -20.828125 -1.08984375 C-14.3848181 -4.01755072 -5.99709035 -4.03622787 0 0 Z " fill="#DB6D38" transform="translate(960.6875,1111.0625)"/>
<path d="M0 0 C2.07448643 1.43618291 3.79876818 2.77564621 5.4375 4.6875 C-1.91915623 9.75541874 -7.68286104 10.6694836 -16.5625 9.6875 C-19.59355297 8.40132619 -22.0536383 6.80979993 -24.5625 4.6875 C-16.99605171 -1.61787358 -9.59910073 -3.5365108 0 0 Z " fill="#DB6D39" transform="translate(1123.5625,962.3125)"/>
<path d="M0 0 C3.06485287 1.26668775 5.50267684 2.82841465 8 5 C4.28890144 9.2820368 1.05194762 10.64947003 -4.55078125 11.29296875 C-11.44166445 11.64561423 -15.62566158 10.31179014 -21 6 C-14.37528188 -0.7990528 -9.42425624 -0.967118 0 0 Z " fill="#DB6D38" transform="translate(1121,470)"/>
<path d="M0 0 C2.07448643 1.43618291 3.79876818 2.77564621 5.4375 4.6875 C-1.91915623 9.75541874 -7.68286104 10.6694836 -16.5625 9.6875 C-19.59355297 8.40132619 -22.0536383 6.80979993 -24.5625 4.6875 C-16.99605171 -1.61787358 -9.59910073 -3.5365108 0 0 Z " fill="#DB6E39" transform="translate(923.5625,334.3125)"/>
<path d="M0 0 C2.18359375 1.10546875 2.18359375 1.10546875 5.43359375 3.10546875 C5.43359375 4.09546875 5.43359375 5.08546875 5.43359375 6.10546875 C-0.05321456 10.18867493 -4.58879858 10.75867022 -11.38671875 10.578125 C-15.95137327 9.89959527 -19.08034194 8.05440533 -22.56640625 5.10546875 C-16.35987658 -1.43654901 -8.75724549 -3.05237324 0 0 Z " fill="#DB6E3A" transform="translate(894.56640625,555.89453125)"/>
<path d="M0 0 C0.33 0 0.66 0 1 0 C1.08636719 0.79277344 1.17273437 1.58554687 1.26171875 2.40234375 C2.68122981 14.18819244 5.05539379 25.75577394 7.45922852 37.37548828 C7.98251202 39.91512604 8.49396141 42.45687591 9 45 C4.125 49 4.125 49 3 49 C-0.041679 32.61037042 -0.13205817 16.6169811 0 0 Z " fill="#D55E34" transform="translate(1065,603)"/>
<path d="M0 0 C0.99 0 1.98 0 3 0 C3.81604999 1.9151579 4.62770632 3.83218834 5.4375 5.75 C6.11619141 7.35101563 6.11619141 7.35101563 6.80859375 8.984375 C7.20175781 9.97953125 7.59492187 10.9746875 8 12 C8.28617188 12.7115625 8.57234375 13.423125 8.8671875 14.15625 C9 16 9 16 7.63671875 17.921875 C6.99347656 18.52515625 6.35023438 19.1284375 5.6875 19.75 C4.73423828 20.67039062 4.73423828 20.67039062 3.76171875 21.609375 C2 23 2 23 0 23 C-0.90620536 18.36828372 -1.1343209 13.96637727 -1.125 9.25 C-1.12757813 7.93515625 -1.13015625 6.6203125 -1.1328125 5.265625 C-1 2 -1 2 0 0 Z " fill="#D4592F" transform="translate(855,343)"/>
</svg>
